<?xml version="1.0" encoding="UTF-8"?>
<svg xmlns="http://www.w3.org/2000/svg" xmlns:xlink="http://www.w3.org/1999/xlink" width="22px" height="26px" viewBox="0 0 22 26" version="1.1">
<g id="surface1">
<path style=" stroke:none;fill-rule:nonzero;fill:rgb(0%,26.666668%,50.980395%);fill-opacity:1;" d="M 21.6875 8.050781 C 21.699219 7.675781 21.609375 7.308594 21.429688 6.980469 C 21.242188 6.664062 20.976562 6.40625 20.65625 6.226562 C 17.808594 4.585938 14.960938 2.945312 12.109375 1.308594 C 11.34375 0.867188 10.601562 0.882812 9.835938 1.332031 C 8.703125 1.996094 3.03125 5.246094 1.339844 6.226562 C 0.644531 6.628906 0.304688 7.246094 0.304688 8.046875 L 0.304688 17.953125 C 0.296875 18.316406 0.382812 18.675781 0.554688 19 C 0.742188 19.324219 1.015625 19.59375 1.34375 19.773438 C 3.035156 20.753906 8.707031 24.003906 9.839844 24.671875 C 10.605469 25.121094 11.347656 25.136719 12.117188 24.691406 C 14.960938 23.050781 17.808594 21.410156 20.660156 19.773438 C 20.988281 19.589844 21.261719 19.324219 21.445312 18.996094 C 21.617188 18.675781 21.703125 18.316406 21.695312 17.949219 L 21.695312 8.050781 Z M 21.6875 8.050781 "/>
<path style=" stroke:none;fill-rule:nonzero;fill:rgb(0%,34.901962%,61.176473%);fill-opacity:1;" d="M 21.691406 17.953125 C 21.699219 18.316406 21.613281 18.675781 21.441406 19 C 21.398438 19.074219 21.351562 19.148438 21.296875 19.21875 L 10.996094 13 L 20.65625 6.226562 C 20.976562 6.40625 21.242188 6.664062 21.425781 6.980469 C 21.605469 7.308594 21.699219 7.675781 21.6875 8.050781 C 21.691406 11.351562 21.691406 17.953125 21.691406 17.953125 Z M 21.691406 17.953125 "/>
<path style=" stroke:none;fill-rule:nonzero;fill:rgb(39.607844%,60.392159%,82.352942%);fill-opacity:1;" d="M 21.425781 6.980469 L 0.554688 19 C 0.382812 18.675781 0.296875 18.316406 0.304688 17.953125 L 0.304688 8.046875 C 0.304688 7.246094 0.644531 6.628906 1.339844 6.226562 C 3.03125 5.246094 8.703125 1.996094 9.839844 1.328125 C 10.597656 0.878906 11.34375 0.863281 12.109375 1.308594 C 14.957031 2.949219 17.804688 4.589844 20.65625 6.226562 C 20.976562 6.40625 21.242188 6.664062 21.425781 6.980469 Z M 21.425781 6.980469 "/>
<path style=" stroke:none;fill-rule:nonzero;fill:rgb(100%,100%,100%);fill-opacity:1;" d="M 11.410156 17 C 9.980469 17.003906 8.660156 16.226562 7.96875 14.972656 C 7.933594 14.914062 7.902344 14.847656 7.871094 14.785156 C 7.003906 12.996094 7.609375 10.84375 9.285156 9.769531 C 10.960938 8.699219 13.175781 9.046875 14.441406 10.582031 C 14.492188 10.644531 14.539062 10.710938 14.589844 10.78125 C 14.613281 10.8125 14.636719 10.84375 14.660156 10.878906 L 18.109375 8.894531 C 18.023438 8.757812 17.9375 8.628906 17.84375 8.5 C 17.796875 8.433594 17.746094 8.367188 17.699219 8.304688 C 15.214844 5.078125 10.671875 4.285156 7.242188 6.476562 C 3.808594 8.667969 2.621094 13.117188 4.507812 16.726562 C 4.539062 16.789062 4.574219 16.851562 4.605469 16.910156 C 5.964844 19.308594 8.480469 20.816406 11.234375 20.890625 C 13.988281 20.960938 16.582031 19.585938 18.066406 17.269531 L 14.691406 15.230469 C 13.96875 16.335938 12.734375 17 11.410156 17 Z M 11.410156 17 "/>
</g>
</svg>
